<svg viewBox="0 0 128 128" xml:space="preserve" xmlns="http://www.w3.org/2000/svg" enable-background="new 0 0 128 128"><circle cx="64" cy="64" r="64" fill="#6dab3c" class="fill-31af91"></circle><path d="M100 37H28c-2.2 0-4 1.8-4 4v42c0 2.2 1.8 4 4 4h20v15c0 .8.9 1.3 1.6.8L71.9 87H100c2.2 0 4-1.8 4-4V41c0-2.2-1.8-4-4-4zM48 67c-2.8 0-5-2.2-5-5s2.2-5 5-5 5 2.2 5 5-2.2 5-5 5zm16 0c-2.8 0-5-2.2-5-5s2.2-5 5-5 5 2.2 5 5-2.2 5-5 5zm16 0c-2.8 0-5-2.2-5-5s2.2-5 5-5 5 2.2 5 5-2.2 5-5 5z" fill="#ffffff" class="fill-ffffff"></path></svg>