<?xml version="1.0" ?><!DOCTYPE svg  PUBLIC '-//W3C//DTD SVG 1.1//EN'  'http://www.w3.org/Graphics/SVG/1.1/DTD/svg11.dtd'><svg height="42px" style="fill-rule:evenodd;clip-rule:evenodd;stroke-linejoin:round;stroke-miterlimit:2;" version="1.1" width="42px" xml:space="preserve" xmlns="http://www.w3.org/2000/svg" xmlns:serif="http://www.serif.com/" xmlns:xlink="http://www.w3.org/1999/xlink"><path d="M39,5c0,-0.552 -0.448,-1 -1,-1l-34,-0c-0.552,-0 -1,0.448 -1,1l0,33c0,0.552 0.448,1 1,1l34,-0c0.552,0 1,-0.448 1,-1l0,-33Zm-2,28l0,4c0,-0 -32,-0 -32,-0l0,-4l32,0Zm-32,-2l0,-25l32,0l0,25l-32,0Z"/><path d="M22.5,34l-3,0c-0.552,0 -1,0.448 -1,1c0,0.552 0.448,1 1,1l3,0c0.552,0 1,-0.448 1,-1c0,-0.552 -0.448,-1 -1,-1Z"/><circle cx="18.5" cy="27" r="2"/><circle cx="28.5" cy="27" r="2"/><path d="M9.053,9.894l3.544,1.773c0,-0 1.917,11.497 1.917,11.497c0.08,0.483 0.497,0.836 0.986,0.836l15,0c0.552,0 1,-0.448 1,-1c0,-0.552 -0.448,-1 -1,-1l-14.153,0c0,-0 -1.861,-11.164 -1.861,-11.164c-0.052,-0.316 -0.253,-0.587 -0.539,-0.73l-4,-2c-0.493,-0.247 -1.095,-0.047 -1.341,0.447c-0.247,0.493 -0.047,1.095 0.447,1.341Z"/><path d="M33.476,11.217c0.066,-0.296 -0.006,-0.606 -0.196,-0.843c-0.19,-0.236 -0.477,-0.374 -0.78,-0.374l-15,0c-0.284,0 -0.555,0.121 -0.745,0.333c-0.19,0.212 -0.28,0.495 -0.249,0.777l1,9c0.056,0.507 0.484,0.89 0.994,0.89l12,0c0.469,0 0.875,-0.326 0.976,-0.783l2,-9Zm-2.223,0.783l-1.555,7c-0,0 -10.303,0 -10.303,0c0,0 -0.778,-7 -0.778,-7l12.636,0Z"/><path d="M21,14l-0,3c0,0.552 0.448,1 1,1c0.552,-0 1,-0.448 1,-1l-0,-3c0,-0.552 -0.448,-1 -1,-1c-0.552,-0 -1,0.448 -1,1Z"/><path d="M24,14l0,3c-0,0.552 0.448,1 1,1c0.552,0 1,-0.448 1,-1l-0,-3c-0,-0.552 -0.448,-1 -1,-1c-0.552,0 -1,0.448 -1,1Z"/><path d="M27,14l0,3c-0,0.552 0.448,1 1,1c0.552,0 1,-0.448 1,-1l0,-3c-0,-0.552 -0.448,-1 -1,-1c-0.552,0 -1,0.448 -1,1Z"/></svg>