<?xml version="1.0" ?><svg height="64" viewBox="0 0 64 64" width="64" xmlns="http://www.w3.org/2000/svg"><defs><style>.cls-1{fill:none;stroke:#000;stroke-linejoin:round;stroke-width:2px;}</style></defs><title/><g data-name="13-Online Shopping" id="_13-Online_Shopping"><path class="cls-1" d="M1,17V3A2,2,0,0,1,3,1H61a2,2,0,0,1,2,2V61a2,2,0,0,1-2,2H3a2,2,0,0,1-2-2V39"/><line class="cls-1" x1="1" x2="63" y1="9" y2="9"/><line class="cls-1" x1="4" x2="6" y1="5" y2="5"/><line class="cls-1" x1="8" x2="10" y1="5" y2="5"/><line class="cls-1" x1="58" x2="60" y1="5" y2="5"/><path class="cls-1" d="M23,22h4a1.959,1.959,0,0,1,2,2V45l2,2H57a1.959,1.959,0,0,0,2-2V28H29"/><path class="cls-1" d="M31,47v3a.979.979,0,0,0,1,1H59"/><circle class="cls-1" cx="37" cy="53" r="2"/><circle class="cls-1" cx="53" cy="53" r="2"/><line class="cls-1" x1="44" x2="44" y1="28" y2="47"/><line class="cls-1" x1="49" x2="49" y1="28" y2="47"/><line class="cls-1" x1="54" x2="54" y1="28" y2="47"/><line class="cls-1" x1="39" x2="39" y1="28" y2="47"/><line class="cls-1" x1="34" x2="34" y1="28" y2="47"/><line class="cls-1" x1="29" x2="59" y1="33" y2="33"/><line class="cls-1" x1="29" x2="59" y1="38" y2="38"/><line class="cls-1" x1="29" x2="59" y1="43" y2="43"/><path class="cls-1" d="M32,55c-2.5,0-2.5-2-5-2s-2.5,2-5,2-2.5-2-5-2"/><path class="cls-1" d="M28,48c-2.5,0-2.5,2-5,2s-2.5-2-5-2"/><line class="cls-1" x1="13" x2="15" y1="53" y2="53"/><line class="cls-1" x1="14" x2="16" y1="48" y2="48"/><circle class="cls-1" cx="13" cy="28" r="12"/><line class="cls-1" x1="13" x2="13" y1="21" y2="35"/><line class="cls-1" x1="20" x2="6" y1="28" y2="28"/><rect class="cls-1" height="6" width="9" x="34" y="22"/><polyline class="cls-1" points="40 22 40 18 48 18 48 28"/><polyline class="cls-1" points="48 24 55 24 55 28"/></g></svg>