<svg viewBox="0 0 64 64" xmlns="http://www.w3.org/2000/svg"><g data-name="Layer 20"><path d="M60 18h-1v-1a3 3 0 0 0-3-3H8a3 3 0 0 0-3 3v1H4a3 3 0 0 0-3 3v23a3 3 0 0 0 3 3h4.42a5 5 0 0 0 9.16 0h30.84a5 5 0 0 0 9.16 0H60a3 3 0 0 0 3-3V21a3 3 0 0 0-3-3Zm1 3v13H51V20h9a1 1 0 0 1 1 1ZM7 17a1 1 0 0 1 1-1h48a1 1 0 0 1 1 1v1H7Zm-3 3h45v15a1 1 0 0 0 1 1h11v5h-5a4.88 4.88 0 0 0-6 0h-3V30a1 1 0 0 0-1-1H34a1 1 0 0 0-1 1v11H16a4.88 4.88 0 0 0-6 0H3V21a1 1 0 0 1 1-1Zm37 11h4v14h-4Zm-2 14h-4V31h4ZM4 45a1 1 0 0 1-1-1v-1h5.42A4.94 4.94 0 0 0 8 45Zm9 3a3 3 0 1 1 3-3 3 3 0 0 1-3 3Zm4.58-5H33v2H18a4.94 4.94 0 0 0-.42-2ZM47 45v-2h1.42a4.94 4.94 0 0 0-.42 2Zm6 3a3 3 0 1 1 3-3 3 3 0 0 1-3 3Zm7-3h-2a4.94 4.94 0 0 0-.42-2H61v1a1 1 0 0 1-1 1Z" fill="#134563" class="fill-000000"></path><path d="M6 34h24a1 1 0 0 0 1-1V23a1 1 0 0 0-1-1H6a1 1 0 0 0-1 1v10a1 1 0 0 0 1 1Zm1-6h4v4H7Zm16 0v4h-4v-4Zm-6 4h-4v-4h4Zm8 0v-4h4v4Zm4-8v2H7v-2ZM34 28h12a1 1 0 0 0 1-1v-4a1 1 0 0 0-1-1H34a1 1 0 0 0-1 1v4a1 1 0 0 0 1 1Zm1-4h10v2H35Z" fill="#134563" class="fill-000000"></path></g></svg>